<svg width="50" height="58" viewBox="0 0 50 58" fill="none" xmlns="http://www.w3.org/2000/svg">
<path d="M29.322 2.60548V6.11763L46.894 16.392L46.9307 29.2854H46.9345L46.9326 30.0872L46.9345 31.0056H46.9307L46.894 42.0429L26.753 53.818V47.0403L41.186 38.6007L41.215 30.0678L41.2073 27.4293H39.2293H37.8617H25.2463V30.8716H37.8617V36.7912L24.999 44.2543L12.1383 36.7912V21.865L24.999 14.402L37.8617 21.865V24.8472H41.1995L41.186 19.8342L26.753 11.3946V7.77178V4.61686V1.11442L24.999 0.0970764L0.0965881 14.5476V43.4505L20.9658 55.5615V52.3173L3.39193 42.0429L3.35523 29.1495H3.35137L3.3533 28.3477L3.35137 27.4293H3.35716L3.39193 16.392L23.5329 4.61686V11.3946L9.09987 19.8342L9.07283 28.3671L9.09987 38.6007L23.5329 47.0403V50.6631V53.818V57.0526L24.999 57.9029L49.9034 43.4505V14.5476L29.322 2.60548Z" fill="url(#paint0_linear_51_5153)" stroke="#683C11" stroke-linecap="round" stroke-linejoin="round"/>
<defs>
<linearGradient id="paint0_linear_51_5153" x1="5.7234" y1="40.9013" x2="48.2812" y2="14.8924" gradientUnits="userSpaceOnUse">
<stop stop-color="#AE8A00"/>
<stop offset="0.5" stop-color="#BA8A42"/>
<stop offset="1" stop-color="#F4DFB3"/>
</linearGradient>
</defs>
</svg>
