<svg width="38" height="19" viewBox="0 0 38 19" fill="none" xmlns="http://www.w3.org/2000/svg">
<path d="M-7.69901e-06 2.08324C-0.00120932 1.87486 0.0387268 1.66829 0.117523 1.47538C0.196316 1.28247 0.312416 1.10702 0.459164 0.959068C0.606354 0.810665 0.781471 0.692874 0.974415 0.612491C1.16736 0.532107 1.37431 0.490721 1.58333 0.490721C1.79235 0.490721 1.9993 0.532107 2.19224 0.612491C2.38519 0.692875 2.5603 0.810665 2.70749 0.959068L15.6433 13.8949C16.534 14.7844 17.7412 15.2841 19 15.2841C20.2587 15.2841 21.466 14.7844 22.3567 13.8949L35.2925 0.95907C35.5906 0.660922 35.995 0.493425 36.4167 0.493425C36.8383 0.493425 37.2427 0.660922 37.5408 0.95907C37.839 1.25722 38.0065 1.66159 38.0065 2.08324C38.0065 2.50488 37.839 2.90926 37.5408 3.2074L24.605 16.1432C23.8696 16.8805 22.996 17.4654 22.0342 17.8645C21.0724 18.2636 20.0413 18.4691 19 18.4691C17.9587 18.4691 16.9276 18.2636 15.9658 17.8645C15.004 17.4654 14.1304 16.8805 13.395 16.1432L0.459164 3.2074C0.312416 3.05946 0.196316 2.884 0.117523 2.69109C0.0387267 2.49818 -0.00120934 2.29161 -7.69901e-06 2.08324Z" fill="white"/>
</svg>
