<?xml version="1.0" encoding="UTF-8"?>
<svg viewBox="0 0 42 42" fill="none" xmlns="http://www.w3.org/2000/svg">
  <path d="M35.0418 12.8922L20.9992 4.78534L6.95748 12.8918L6.95605 12.8925V29.1082L20.9987 37.2154L20.999 37.215L35.0416 29.1086V12.8929L35.0418 12.8922ZM33.8224 28.403L20.9996 35.8054V30.6246V30.6253L12.6638 25.8129V16.1876L12.6645 16.1869L16.8677 18.6136H16.8681L20.9996 16.2283L25.1311 18.6139H25.1315L25.1318 18.6143V23.3857L20.9996 25.771V30.6248L29.3354 25.8131V16.1878L29.3347 16.1874L29.3343 16.1871L20.9996 11.3743L12.6649 16.1867L8.17811 13.5963L20.9991 6.19354L33.8209 13.5963L33.8224 13.597L33.8224 28.403Z" fill="white"/>
  <path d="M16.8677 18.6151V23.3865L20.9999 25.7722V21.0004L16.868 18.6147L16.8677 18.6151Z" fill="white"/>
  </svg>