<?xml version="1.0" encoding="UTF-8"?>
<svg id="Capa_2" data-name="Capa 2" xmlns="http://www.w3.org/2000/svg" viewBox="0 0 100 100">
  <defs>
    <style>
      .cls-1 {
        fill: white;
      }

      <!-- .cls-1, .cls-2 {
        stroke: #089cf4;
        stroke-miterlimit: 10;
        stroke-width: 3px;
      } -->
      .cls-1, .cls-2 {
        stroke: white;
        stroke-miterlimit: 10;
        stroke-width: 3px;
      }
      .cls-2 {
        fill: none;
      }
    </style>
  </defs>
  <circle class="cls-1" cx="50" cy="22.62" r="4"/>
  <circle class="cls-1" cx="69" cy="30.62" r="4"/>
  <circle class="cls-1" cx="77" cy="50.88" r="4"/>
  <circle class="cls-1" cx="54" cy="40.38" r="4"/>
  <circle class="cls-1" cx="30.5" cy="69.62" r="4"/>
  <circle class="cls-1" cx="55.75" cy="58.88" r="4"/>
  <circle class="cls-1" cx="69" cy="69.62" r="4"/>
  <circle class="cls-1" cx="38.5" cy="46.88" r="4"/>
  <circle class="cls-1" cx="50" cy="77.38" r="4"/>
  <circle class="cls-1" cx="31" cy="30.62" r="4"/>
  <circle class="cls-1" cx="23" cy="50.88" r="4"/>
  <polygon class="cls-2" points="30.5 69.62 38.5 46.88 54 58.25 30.5 69.62"/>
  <path class="cls-2" d="m41.62,44.38c.38.56,12.38-4,12.38-4l1.75,17.88,21.25-7.38-21.25-11.5,13.25-8.75"/>
  <path class="cls-2" d="m50,74.88c0-1.5,5.75-16.62,5.75-16.62l10.68,8.31"/>
  <polyline class="cls-2" points="23 49.12 35.19 49.12 38.5 46.88 31 32.62 51.75 38.62 51.75 26.22"/>
  <polygon class="cls-2" points="23 46.88 31 30.62 47.25 22.62 65.53 28.64 72.26 32.94 77 49.12 71.75 69.62 51.75 78.88 30.5 71.62 21.75 52.62 23 46.88"/>
</svg>