<?xml version="1.0" encoding="UTF-8"?>
<svg id="Capa_2" data-name="Capa 2" xmlns="http://www.w3.org/2000/svg" viewBox="0 0 100 100">
  <defs>
    <style>
      .cls-1 {
        fill: none;
        stroke: white;
        stroke-linecap: round;
        stroke-linejoin: round;
        stroke-width: 3px;
      }
    </style>
  </defs>
  <circle class="cls-1" cx="41.92" cy="37.17" r="12.39"/>
  <path class="cls-1" d="m45.75,58.81h-16.23s-4.77,0-7.52,2.75-3,5-3,5v13.75h22.92"/>
  <polygon class="cls-1" points="56.44 63.39 59.95 60.96 60.25 55.56 67 55.56 67 61.06 71 63.06 76.75 60.56 80 66.06 75.25 71.06 75.25 74.31 80 77.56 76.5 83.06 71.44 80.84 67.88 82.53 67.89 88.52 59.53 88.56 60.09 82.43 56.15 80.64 51.25 83.31 47.75 76.81 52.25 74.06 53.25 69.56 47.75 65.56 51 60.81 56.44 63.39"/>
  <circle class="cls-1" cx="63.88" cy="72.06" r="5.91"/>
</svg>