<?xml version="1.0" encoding="UTF-8"?>
<svg id="Capa_2" data-name="Capa 2" xmlns="http://www.w3.org/2000/svg" viewBox="0 0 100 100">
  <defs>
    <style>
      .cls-1 {
        stroke-linecap: round;
        stroke-linejoin: round;
      }

      .cls-1, .cls-2 {
        fill: none;
        stroke: white;
        stroke-width: 3px;
      }

      .cls-2 {
        stroke-miterlimit: 10;
      }

      .cls-3 {
        fill: white;
      }
    </style>
  </defs>
  <rect class="cls-2" x="17.5" y="19.37" width="65" height="63" rx="5" ry="5"/>
  <line class="cls-2" x1="17.5" y1="29.29" x2="82.5" y2="29.29"/>
  <line class="cls-2" x1="17.5" y1="38.38" x2="82.5" y2="38.38"/>
  <line class="cls-1" x1="25.37" y1="24.63" x2="50" y2="24.63"/>
  <circle class="cls-1" cx="58.78" cy="24.63" r=".38"/>
  <circle class="cls-1" cx="66.28" cy="24.63" r=".38"/>
  <circle class="cls-1" cx="74.03" cy="24.63" r=".38"/>
  <rect class="cls-1" x="25.37" y="45.63" width="9.37" height="9.38"/>
  <rect class="cls-1" x="25.37" y="65.63" width="9.37" height="9.38"/>
  <g>
    <path class="cls-3" d="m41.87,54.77c-.23-.22-.34-.49-.34-.82s.11-.6.34-.82c.23-.22.52-.33.88-.33s.63.11.85.33c.22.22.34.49.34.82s-.11.6-.34.82c-.22.22-.51.33-.85.33s-.65-.11-.88-.33Z"/>
    <path class="cls-3" d="m45.5,49.02c.33-.6.78-1.07,1.36-1.4.58-.33,1.24-.5,1.99-.5.96,0,1.76.24,2.39.72.63.48,1.05,1.16,1.27,2.02h-2.11c-.11-.34-.3-.6-.57-.79-.27-.19-.6-.29-.99-.29-.56,0-1,.2-1.33.61-.33.41-.49.98-.49,1.73s.16,1.31.49,1.71c.33.41.77.61,1.33.61.79,0,1.31-.35,1.55-1.06h2.11c-.21.84-.64,1.51-1.27,2-.63.5-1.43.74-2.38.74-.75,0-1.41-.17-1.99-.5-.58-.33-1.03-.8-1.36-1.4-.33-.6-.49-1.3-.49-2.11s.16-1.5.49-2.11Z"/>
    <path class="cls-3" d="m55.37,54.63c-.6-.33-1.07-.8-1.41-1.41-.34-.61-.51-1.31-.51-2.1s.18-1.49.53-2.1c.35-.61.83-1.08,1.43-1.41.61-.33,1.28-.5,2.03-.5s1.42.17,2.03.5c.61.33,1.08.8,1.43,1.41.35.61.53,1.31.53,2.1s-.18,1.49-.54,2.1c-.36.61-.84,1.08-1.46,1.41-.61.33-1.29.5-2.05.5s-1.42-.17-2.02-.5Zm3.02-1.47c.31-.17.56-.43.75-.78.19-.35.28-.77.28-1.26,0-.74-.19-1.3-.58-1.7-.39-.4-.86-.59-1.42-.59s-1.03.2-1.41.59c-.38.4-.57.96-.57,1.7s.18,1.3.55,1.7c.37.4.83.59,1.39.59.35,0,.69-.09,1-.26Z"/>
    <path class="cls-3" d="m74.81,48.01c.58.58.88,1.4.88,2.44v4.55h-1.96v-4.28c0-.61-.15-1.07-.46-1.39-.31-.32-.73-.48-1.26-.48s-.95.16-1.27.48c-.31.32-.47.79-.47,1.39v4.28h-1.96v-4.28c0-.61-.15-1.07-.46-1.39-.31-.32-.73-.48-1.26-.48s-.97.16-1.28.48c-.31.32-.47.79-.47,1.39v4.28h-1.96v-7.76h1.96v.94c.25-.33.58-.58.97-.77.4-.19.83-.28,1.31-.28.61,0,1.15.13,1.62.39s.84.62,1.11,1.1c.25-.45.62-.81,1.1-1.08s1-.41,1.56-.41c.95,0,1.72.29,2.3.88Z"/>
  </g>
  <g>
    <path class="cls-3" d="m41.87,73.27c-.23-.22-.34-.49-.34-.82s.11-.6.34-.82c.23-.22.52-.33.88-.33s.63.11.85.33c.22.22.34.49.34.82s-.11.6-.34.82c-.22.22-.51.33-.85.33s-.65-.11-.88-.33Z"/>
    <path class="cls-3" d="m52.05,66.51c.57.58.85,1.4.85,2.44v4.55h-1.96v-4.28c0-.62-.15-1.09-.46-1.42-.31-.33-.73-.5-1.26-.5s-.97.17-1.28.5c-.31.33-.47.81-.47,1.42v4.28h-1.96v-7.76h1.96v.97c.26-.34.6-.6,1-.79.41-.19.85-.29,1.34-.29.92,0,1.67.29,2.24.88Z"/>
    <path class="cls-3" d="m61.92,70.21h-5.67c.05.56.24,1,.59,1.32.34.32.77.48,1.27.48.73,0,1.25-.31,1.55-.94h2.11c-.22.75-.65,1.36-1.29,1.84-.63.48-1.41.72-2.34.72-.75,0-1.42-.17-2.01-.5-.59-.33-1.05-.8-1.39-1.41-.33-.61-.5-1.31-.5-2.1s.16-1.51.49-2.11c.33-.61.78-1.07,1.37-1.4s1.26-.49,2.03-.49,1.4.16,1.98.48,1.04.77,1.36,1.35c.32.58.48,1.25.48,2.01,0,.28-.02.53-.06.76Zm-1.97-1.32c0-.5-.19-.91-.55-1.21-.35-.3-.79-.46-1.3-.46-.49,0-.89.15-1.22.44-.33.29-.53.7-.61,1.23h3.68Z"/>
    <path class="cls-3" d="m65.69,67.35v3.75c0,.26.06.45.19.57.13.12.34.18.64.18h.91v1.65h-1.23c-1.65,0-2.48-.8-2.48-2.41v-3.74h-.92v-1.61h.92v-1.92h1.97v1.92h1.74v1.61h-1.74Z"/>
  </g>
</svg>