<svg width="67" height="83" viewBox="0 0 67 83" fill="none" xmlns="http://www.w3.org/2000/svg">
<path fill-rule="evenodd" clip-rule="evenodd" d="M48.4475 66.7023L48.4773 65.4852C48.4773 62.4876 49.1815 60.0752 50.5899 58.2481C60.4487 49.6565 65.3781 41.4399 65.3781 33.5984C65.3781 16.1471 51.1905 2 33.6891 2C16.1877 2 2 16.1471 2 33.5984C2 41.3908 6.92941 49.6073 16.7882 58.2481C18.0401 59.8722 18.7357 61.9587 18.8748 64.5077L18.9132 66.2706L18.9573 67.1572L19.0437 68.128C19.0622 68.2959 19.0829 68.4665 19.1061 68.6396L19.2758 69.7047C20.2202 74.7851 23.4115 81.2227 33.6891 81.2227C43.9666 81.2227 47.1579 74.7851 48.1023 69.7047L48.2721 68.6396L48.3836 67.6332L48.4475 66.7023Z" stroke="white" stroke-width="3" stroke-linecap="round" stroke-linejoin="round"/>
<path d="M19.1641 63.6428C23.7303 65.3565 28.5715 66.2134 33.6874 66.2134C38.8034 66.2134 43.6448 65.3565 48.2116 63.6428" stroke="white" stroke-width="3" stroke-linecap="round" stroke-linejoin="round"/>
</svg>
