<svg width="82" height="82" viewBox="0 0 82 82" fill="none" xmlns="http://www.w3.org/2000/svg">
<path d="M41 58.3333H45.3333C48.2224 58.3333 54 56.6 54 49.6667C54 42.7333 48.2224 41 45.3333 41H36.6667C33.7776 41 28 39.2667 28 32.3333C28 25.4 33.7776 23.6667 36.6667 23.6667H41M41 58.3333H28M41 58.3333V67M41 23.6667H54M41 23.6667V15M80 41C80 62.5393 62.5393 80 41 80C19.4609 80 2 62.5393 2 41C2 19.4609 19.4609 2 41 2C62.5393 2 80 19.4609 80 41Z" stroke="white" stroke-width="3" stroke-linecap="round" stroke-linejoin="round"/>
</svg>
