<svg width="86" height="81" viewBox="0 0 86 81" fill="none" xmlns="http://www.w3.org/2000/svg">
<path d="M2 2H12.7895L21.4211 61.8889H66.7368M66.7368 61.8889C61.9696 61.8889 58.1053 65.7192 58.1053 70.4444C58.1053 75.1697 61.9696 79 66.7368 79C71.5041 79 75.3684 75.1697 75.3684 70.4444C75.3684 65.7192 71.5041 61.8889 66.7368 61.8889ZM19.5714 49.0556H71.0526L84 10.5556H14.0225M40.8421 70.4444C40.8421 75.1697 36.9777 79 32.2105 79C27.4434 79 23.5789 75.1697 23.5789 70.4444C23.5789 65.7192 27.4434 61.8889 32.2105 61.8889C36.9777 61.8889 40.8421 65.7192 40.8421 70.4444Z" stroke="white" stroke-width="3" stroke-linecap="round" stroke-linejoin="round"/>
</svg>
